<?xml version="1.0" encoding="iso-8859-1"?>
<!DOCTYPE svg PUBLIC "-//W3C//DTD SVG 1.1//EN" "http://www.w3.org/Graphics/SVG/1.1/DTD/svg11.dtd">
<svg version="1.1" xmlns="http://www.w3.org/2000/svg" xmlns:xlink="http://www.w3.org/1999/xlink" x="0px" y="0px"
	 viewBox="0 0 223.793 223.793" style="enable-background:new 0 0 223.793 223.793;" xml:space="preserve">
	<path d="M192.779,162.547v-73.15V76.779c0-18.32-17.799-48.629-38.082-48.629h-85.6c-20.284,0-38.084,30.309-38.084,48.629v12.617
		v73.15v26.328c0,19.254,15.665,34.918,34.92,34.918h91.928c19.254,0,34.918-15.664,34.918-34.918V162.547z M46.014,76.779
		c0-12.176,13.345-33.629,23.084-33.629h85.6c9.738,0,23.082,21.453,23.082,33.629v5.117H46.014V76.779z M46.014,96.896h131.766
		v58.15H46.014V96.896z M177.779,188.875c0,10.982-8.936,19.918-19.918,19.918H65.934c-10.984,0-19.92-8.936-19.92-19.918v-18.828
		h131.766V188.875z"/>
	<path d="M52.09,7.5c0,4.143,3.357,7.5,7.5,7.5h104.615c4.143,0,7.5-3.357,7.5-7.5s-3.357-7.5-7.5-7.5H59.59
		C55.447,0,52.09,3.357,52.09,7.5z"/>
</svg>
